HIERARCHY
ROOT Hips
{
	OFFSET 0.000000 0.000000 0.000000
	CHANNELS 6 Xposition Yposition Zposition Zrotation Yrotation Xrotation 
	JOINT LHipJoint
	{
		OFFSET 0.000000 0.000000 0.000000
		CHANNELS 3 Zrotation Yrotation Xrotation
		JOINT LeftUpLeg
		{
			OFFSET 1.363060 -1.794630 0.839290
			CHANNELS 3 Zrotation Yrotation Xrotation
			JOINT LeftLeg
			{
				OFFSET 2.448110 -6.726130 0.000000
				CHANNELS 3 Zrotation Yrotation Xrotation
				JOINT LeftFoot
				{
					OFFSET 2.562200 -7.039590 0.000000
					CHANNELS 3 Zrotation Yrotation Xrotation
					JOINT LeftToeBase
					{
						OFFSET 0.157640 -0.433110 2.322550
						CHANNELS 3 Zrotation Yrotation Xrotation
						End Site
						{
							OFFSET 0.000000 0.000000 0.000000
						}
					}
				}
			}
		}
	}
	JOINT RHipJoint
	{
		OFFSET 0.000000 0.000000 0.000000
		CHANNELS 3 Zrotation Yrotation Xrotation
		JOINT RightUpLeg
		{
			OFFSET -1.305520 -1.794630 0.839290
			CHANNELS 3 Zrotation Yrotation Xrotation
			JOINT RightLeg
			{
				OFFSET -2.542530 -6.985550 0.000000
				CHANNELS 3 Zrotation Yrotation Xrotation
				JOINT RightFoot
				{
					OFFSET -2.568260 -7.056230 0.000000
					CHANNELS 3 Zrotation Yrotation Xrotation
					JOINT RightToeBase
					{
						OFFSET -0.164730 -0.452590 2.363150
						CHANNELS 3 Zrotation Yrotation Xrotation
						End Site
						{
							OFFSET 0.000000 0.000000 0.000000
						}
					}
				}
			}
		}
	}
	JOINT LowerBack
	{
		OFFSET 0.000000 0.000000 0.000000
		CHANNELS 3 Zrotation Yrotation Xrotation
		JOINT Spine
		{
			OFFSET 0.028270 2.035590 -0.193380
			CHANNELS 3 Zrotation Yrotation Xrotation
			JOINT Spine1
			{
				OFFSET 0.056720 2.048850 -0.042750
				CHANNELS 3 Zrotation Yrotation Xrotation
				JOINT Neck
				{
					OFFSET 0.000000 0.000000 0.000000
					CHANNELS 3 Zrotation Yrotation Xrotation
					JOINT Neck1
					{
						OFFSET -0.054170 1.746240 0.172020
						CHANNELS 3 Zrotation Yrotation Xrotation
						JOINT Head
						{
							OFFSET 0.104070 1.761360 -0.123970
							CHANNELS 3 Zrotation Yrotation Xrotation
							End Site
							{
								OFFSET 0.000000 0.000000 0.000000
							}
						}
					}
				}
				JOINT LeftShoulder
				{
					OFFSET 0.000000 0.000000 0.000000
					CHANNELS 3 Zrotation Yrotation Xrotation
					JOINT LeftArm
					{
						OFFSET 3.362410 1.200890 -0.311210
						CHANNELS 3 Zrotation Yrotation Xrotation
						JOINT LeftForeArm
						{
							OFFSET 4.983000 -0.000000 -0.000000
							CHANNELS 3 Zrotation Yrotation Xrotation
							JOINT LeftHand
							{
								OFFSET 3.483560 -0.000000 -0.000000
								CHANNELS 3 Zrotation Yrotation Xrotation
								JOINT LeftFingerBase
								{
									OFFSET 0.000000 0.000000 0.000000
									CHANNELS 3 Zrotation Yrotation Xrotation
									JOINT LeftHandIndex1
									{
										OFFSET 0.715260 -0.000000 -0.000000
										CHANNELS 3 Zrotation Yrotation Xrotation
										End Site
										{
											OFFSET 0.000000 0.000000 0.000000
										}
									}
								}
								JOINT LThumb
								{
									OFFSET 0.000000 0.000000 0.000000
									CHANNELS 3 Zrotation Yrotation Xrotation
									End Site
									{
										OFFSET 0.000000 0.000000 0.000000
									}
								}
							}
						}
					}
				}
				JOINT RightShoulder
				{
					OFFSET 0.000000 0.000000 0.000000
					CHANNELS 3 Zrotation Yrotation Xrotation
					JOINT RightArm
					{
						OFFSET -3.136600 1.374050 -0.404650
						CHANNELS 3 Zrotation Yrotation Xrotation
						JOINT RightForeArm
						{
							OFFSET -5.241900 -0.000000 -0.000000
							CHANNELS 3 Zrotation Yrotation Xrotation
							JOINT RightHand
							{
								OFFSET -3.444170 -0.000000 -0.000000
								CHANNELS 3 Zrotation Yrotation Xrotation
								JOINT RightFingerBase
								{
									OFFSET 0.000000 0.000000 0.000000
									CHANNELS 3 Zrotation Yrotation Xrotation
									JOINT RightHandIndex1
									{
										OFFSET -0.622530 -0.000000 -0.000000
										CHANNELS 3 Zrotation Yrotation Xrotation
										End Site
										{
											OFFSET 0.000000 0.000000 0.000000
										}
									}
								}
								JOINT RThumb
								{
									OFFSET 0.000000 0.000000 0.000000
									CHANNELS 3 Zrotation Yrotation Xrotation
									End Site
									{
										OFFSET 0.000000 0.000000 0.000000
									}
								}
							}
						}
					}
				}
			}
		}
	}
}
MOTION
Frames: 10
Frame Time: 0.008333
-12.578157 17.886822 -8.615120 -5.400272 57.870098 -0.819538 -3.211392 1.400573 2.615548 -15.184107 -2.141930 -10.382904 -0.085707 7.733040 22.966142 -1.485605 10.435114 -11.908046 0.282200 3.416600 9.441000 1.135756 -1.108420 0.986763 23.286475 10.249572 -8.315805 -1.670862 -8.583850 26.090190 -2.027789 11.317727 -2.470697 -0.094100 -1.978300 5.445800 -2.371602 -4.320528 4.268208 2.391660 -5.836626 0.164053 3.538910 -3.037835 -3.799712 -18.209065 -20.035053 3.806978 13.679429 -27.446990 8.387341 5.022900 -13.504500 9.669800 -6.759714 -0.590233 -1.174262 -84.250429 -1.732538 23.007744 13.188894 -18.325879 -2.510157 -1.610265 -1.971279 9.932354 19.334224 20.381710 8.201500 -7.125000 0.000000 0.000000 -8.788300 53.695400 -1.890300 5.349382 2.139766 -0.525399 83.391006 -1.148805 15.217602 -15.065505 22.224277 -3.142300 0.340447 -0.167214 8.633621 -14.328717 8.032234 -2.125100 7.125000 0.000000 0.000000 8.803900 -21.608800 5.001000 
-12.579360 17.887222 -8.612715 -5.466824 58.022707 -0.899325 -3.204353 1.401853 2.612082 -15.129173 -2.098845 -10.407583 -0.073744 7.740212 22.981490 -1.518943 10.462641 -11.448386 0.172900 2.678700 7.385600 1.134176 -1.113490 0.987514 23.356110 10.291493 -8.221417 -1.657264 -8.563469 26.024917 -2.000221 11.047136 -2.535683 -0.088700 -1.921200 5.287900 -2.353950 -4.288538 4.301359 2.397902 -5.794662 0.173772 3.548992 -3.014304 -3.788299 -17.891837 -19.882200 3.158035 13.052292 -27.174424 8.974632 4.771500 -13.339100 9.811600 -6.758782 -0.608086 -1.182637 -84.237066 -1.672157 23.262321 13.241764 -18.414057 -2.534594 -1.622250 -1.997492 9.822019 19.501741 20.675284 8.387100 -7.125000 0.000000 0.000000 -8.726800 54.054900 -1.953700 5.341854 2.112283 -0.542530 83.412307 -1.204887 15.064526 -15.125171 22.310174 -3.167191 0.341271 -0.162648 8.476334 -14.321690 7.971782 -2.107400 7.125000 0.000000 0.000000 8.811300 -21.674500 4.992000 
-12.578859 17.889126 -8.613016 -5.480750 58.113836 -0.888230 -3.203681 1.406744 2.609800 -15.102937 -2.206479 -10.331753 -0.083165 7.710675 22.888722 -1.570212 10.586365 -11.010801 0.099600 2.034800 5.601700 1.133476 -1.116472 0.985548 23.372729 10.331949 -8.235142 -1.659918 -8.575150 26.053573 -1.983110 10.846804 -2.641244 -0.088000 -1.913700 5.267300 -2.297003 -4.210853 4.282229 2.374588 -5.688683 0.167761 3.477222 -2.959156 -3.795570 -17.580604 -19.685554 2.601936 12.566569 -26.866266 9.569900 4.583700 -13.156500 9.962300 -6.753833 -0.618427 -1.194810 -84.184037 -1.552420 23.690515 13.318832 -18.541001 -2.571197 -1.625160 -2.021372 9.587333 19.647287 20.878075 8.530000 -7.125000 0.000000 0.000000 -8.655000 54.310700 -1.991600 5.333422 2.088896 -0.558336 83.477085 -1.258522 14.790882 -15.132696 22.322287 -3.169119 0.346008 -0.163079 8.439408 -14.453114 7.961928 -2.125200 7.125000 0.000000 0.000000 8.713400 -21.678900 4.934400 
-12.578057 17.892733 -8.612415 -5.317927 58.229302 -0.680015 -3.216613 1.402272 2.603620 -15.157711 -2.463118 -10.235959 -0.102057 7.680195 22.804463 -1.533252 10.442418 -11.108056 0.142700 2.434200 6.707200 1.134771 -1.116962 0.985549 23.273333 10.292248 -8.335699 -1.665913 -8.593064 26.096129 -1.981663 10.750208 -2.783689 -0.094900 -1.986900 5.469500 -2.335277 -4.166471 4.209829 2.333301 -5.635490 0.146796 3.417026 -2.929528 -3.784835 -17.243322 -19.421744 2.083136 12.095273 -26.465717 10.125708 4.419300 -12.935700 10.075700 -6.757755 -0.634331 -1.202244 -84.138941 -1.524893 23.826918 13.307023 -18.527430 -2.568066 -1.619653 -2.003801 9.568394 19.634960 20.654536 8.440800 -7.125000 0.000000 0.000000 -8.576000 54.060300 -1.920700 5.327908 2.066413 -0.575095 83.529450 -1.274748 14.612725 -15.114507 22.296891 -3.159993 0.352327 -0.164293 8.498339 -14.636074 7.932108 -2.145600 7.125000 0.000000 0.000000 8.577500 -21.701600 4.851200 
-12.578959 17.891831 -8.608106 -5.105044 58.410165 -0.470444 -3.227983 1.390749 2.602612 -15.252242 -2.391202 -10.274167 -0.116578 7.648012 22.718899 -1.464486 10.156069 -11.223189 0.190400 2.810400 7.751300 1.133634 -1.117282 0.985336 23.165775 10.226179 -8.409390 -1.675681 -8.617667 26.161450 -1.976568 10.633856 -2.907232 -0.098600 -2.024900 5.574600 -2.470010 -4.160294 4.177036 2.315902 -5.641378 0.132535 3.460714 -2.928046 -3.761773 -16.925206 -19.094385 1.444981 11.562231 -25.952945 10.694772 4.243500 -12.664000 10.196700 -6.764805 -0.653526 -1.209257 -84.145341 -1.522431 23.833377 13.276972 -18.484523 -2.555776 -1.620620 -1.989315 9.599001 19.650493 20.494606 8.388800 -7.125000 0.000000 0.000000 -8.491700 53.885900 -1.865400 5.325993 2.040480 -0.593438 83.525441 -1.290600 14.481550 -15.086930 22.257634 -3.146935 0.356533 -0.165495 8.505399 -14.747824 7.928873 -2.162200 7.125000 0.000000 0.000000 8.493600 -21.699600 4.803200 
-12.579961 17.888826 -8.604800 -5.028516 58.552696 -0.403905 -3.235221 1.385889 2.603755 -15.288515 -2.350664 -10.282382 -0.129595 7.618311 22.635477 -1.431402 10.005540 -11.235770 0.216600 2.995900 8.267200 1.131299 -1.119889 0.982223 23.148168 10.357815 -8.383988 -1.684042 -8.640763 26.228000 -1.950801 10.392382 -2.973227 -0.100500 -2.044700 5.629300 -2.552382 -4.153684 4.159533 2.327860 -5.641392 0.142013 3.530144 -2.927614 -3.699978 -16.556921 -18.724993 0.674766 11.112224 -25.372138 11.260213 4.085700 -12.346600 10.342300 -6.769166 -0.672794 -1.217014 -84.178222 -1.575544 23.861410 13.262746 -18.463732 -2.549354 -1.627681 -2.002359 9.556305 19.703948 20.639997 8.469200 -7.125000 0.000000 0.000000 -8.490400 54.059000 -1.901100 5.329164 2.018138 -0.611032 83.502939 -1.255722 14.387040 -15.058997 22.216725 -3.133865 0.359862 -0.161165 8.470475 -14.798036 7.800154 -2.134400 7.125000 0.000000 0.000000 8.459900 -21.833600 4.757600 
-12.580462 17.887423 -8.603197 -5.049204 58.643187 -0.423476 -3.236801 1.386221 2.607409 -15.272870 -2.303716 -10.280832 -0.136500 7.596847 22.574523 -1.407311 9.868972 -11.151264 0.223000 3.039600 8.389000 1.129995 -1.123309 0.977932 23.187535 10.574651 -8.302343 -1.689423 -8.657645 26.277009 -1.920895 10.113008 -3.068963 -0.099700 -2.036600 5.606900 -2.546819 -4.115070 4.164016 2.340110 -5.591561 0.148449 3.551340 -2.902863 -3.667256 -16.192104 -18.325376 -0.172615 10.680405 -24.756836 11.946940 3.931900 -12.005900 10.557700 -6.772740 -0.691339 -1.226438 -84.211302 -1.634683 23.971588 13.251448 -18.445660 -2.544238 -1.630658 -2.033872 9.424473 19.701835 20.953998 8.587400 -7.125000 0.000000 0.000000 -8.621900 54.409600 -2.004800 5.330711 1.999755 -0.629959 83.495342 -1.249958 14.257251 -15.053051 22.209091 -3.130250 0.363582 -0.161844 8.427192 -14.892038 7.810023 -2.151500 7.125000 0.000000 0.000000 8.388800 -21.819100 4.719600 
-12.579560 17.887222 -8.600992 -5.114796 58.693533 -0.466309 -3.233178 1.384558 2.610667 -15.229729 -2.142516 -10.358425 -0.134103 7.590116 22.554887 -1.376952 9.689460 -11.022438 0.203500 2.905000 8.014300 1.130330 -1.125705 0.974344 23.254096 10.779528 -8.206946 -1.685609 -8.655866 26.270351 -1.890703 9.841391 -3.156557 -0.105400 -2.093400 5.763800 -2.454562 -4.042167 4.137831 2.343856 -5.490058 0.140541 3.510988 -2.850996 -3.664837 -16.030727 -17.907042 -0.941507 10.211812 -24.109542 12.683153 3.806900 -11.674100 10.812600 -6.776160 -0.705526 -1.236525 -84.202422 -1.620547 24.376315 13.253914 -18.454420 -2.547519 -1.640972 -2.083388 9.002540 19.874172 21.398801 8.839500 -7.125000 0.000000 0.000000 -8.616000 54.942200 -2.115400 5.324661 1.981070 -0.649015 83.556682 -1.339049 13.862299 -15.092038 22.271994 -3.147486 0.358738 -0.166115 8.651648 -14.823369 7.905765 -2.167500 7.125000 0.000000 0.000000 8.438000 -21.720600 4.766900 
-12.579760 17.889928 -8.599790 -5.175417 58.745563 -0.513528 -3.230572 1.384642 2.613653 -15.178244 -2.068707 -10.390794 -0.131745 7.585024 22.542375 -1.328094 9.436213 -10.942976 0.237800 3.138400 8.664200 1.130082 -1.127399 0.971629 23.316373 10.892192 -8.135521 -1.679741 -8.648000 26.246867 -1.867789 9.664375 -3.169945 -0.110900 -2.147100 5.912300 -2.372339 -3.953809 4.118582 2.352088 -5.368490 0.133237 3.491365 -2.789559 -3.672972 -16.096085 -17.489545 -1.588395 9.888795 -23.462616 13.400808 3.774000 -11.358400 11.102300 -6.777642 -0.709347 -1.246764 -84.172367 -1.549714 24.922663 13.285161 -18.505709 -2.565127 -1.618960 -2.108843 8.447117 19.815870 21.435792 8.828000 -7.125000 0.000000 0.000000 -8.698500 54.977800 -2.143500 5.316264 1.968974 -0.663291 83.612405 -1.459400 13.363967 -15.146733 22.359679 -3.172926 0.345731 -0.163556 8.985798 -14.515774 7.844466 -2.103100 7.125000 0.000000 0.000000 8.671700 -21.799200 4.886300 
-12.580462 17.895338 -8.599289 -5.231834 58.821888 -0.555353 -3.228146 1.387869 2.616230 -15.114731 -2.086548 -10.375095 -0.130965 7.576078 22.517513 -1.290147 9.211059 -10.777623 0.271100 3.349400 9.253200 1.129217 -1.129152 0.969220 23.372568 10.978777 -8.089136 -1.676590 -8.645884 26.240198 -1.843769 9.481667 -3.179372 -0.123200 -2.263100 6.233200 -2.282117 -3.865636 4.117238 2.347341 -5.245933 0.118665 3.434015 -2.727625 -3.701290 -16.068251 -17.028245 -2.275564 9.593804 -22.757374 14.148718 3.747700 -11.009300 11.399300 -6.785390 -0.718296 -1.255053 -84.177971 -1.555073 25.077691 13.251542 -18.445690 -2.552154 -1.576500 -2.061141 8.367237 19.435721 20.740250 8.389700 -7.125000 0.000000 0.000000 -8.826500 54.133600 -1.993300 5.310169 1.959641 -0.680043 83.590664 -1.576082 13.222658 -15.180441 22.410757 -3.187912 0.343109 -0.155494 8.856314 -14.392547 7.687051 -2.041600 7.125000 0.000000 0.000000 8.769800 -21.971900 4.908000 
